<?xml version="1.0" encoding="iso-8859-1"?>
<!-- Uploaded to: SVG Repo, www.svgrepo.com, Generator: SVG Repo Mixer Tools -->
<svg fill="#000000" height="800px" width="800px" version="1.1" id="Layer_1" xmlns="http://www.w3.org/2000/svg" xmlns:xlink="http://www.w3.org/1999/xlink" 
	 viewBox="0 0 512 512" xml:space="preserve">
<g>
	<g>
		<path d="M338.323,271.947l-4.025-21.578c-14.9-1.865-27.797-11.95-33.029-26.299l6.396,34.288h-20.297
			c-1.972-23.417-21.636-41.876-45.554-41.876c-23.916,0-43.582,18.459-45.554,41.876H65.13l17.282-92.639h76.652
			c-1.868,3.031-1.665,5.56-1.665,7.664c0,6.168,5.001,11.168,11.169,11.168h35.662c6.168,0,11.169-5.001,11.169-11.168
			c0-2.074,0.21-4.623-1.665-7.664h76.652l8.423,45.154c-0.296-15.314,8.135-29.341,21.326-36.438l-4.677-25.073
			c-1.221-6.544-6.932-11.288-13.589-11.288H70.928c-6.656,0-12.368,4.744-13.589,11.288L34.473,271.948
			c-13.277,10.723-21.776,27.126-21.776,45.521v70.253c0,12.091,9.801,21.892,21.891,21.892h6.366v29.325
			c0,18.044,14.628,32.673,32.673,32.673c18.045,0,32.673-14.628,32.673-32.673v-29.325h29.522v11.075
			c0,6.187,5.015,11.202,11.202,11.202h78.747c6.187,0,11.202-5.015,11.202-11.202v-11.075h29.522v29.325
			c0,18.044,14.628,32.673,32.673,32.673c18.045,0,32.673-14.628,32.673-32.673v-29.325h6.366c12.091,0,21.891-9.801,21.891-21.892
			V317.47C360.099,299.073,351.6,282.67,338.323,271.947z M72.76,364.493c-15.83,0-28.662-12.84-28.662-28.68
			c0-15.84,12.832-28.68,28.662-28.68s28.664,12.84,28.664,28.68C101.423,351.652,88.589,364.493,72.76,364.493z M218.63,386.951
			h-64.463c-5.76,0-10.429-4.67-10.429-10.429c0-5.76,4.67-10.429,10.429-10.429h64.463c5.76,0,10.429,4.67,10.429,10.429
			S224.389,386.951,218.63,386.951z M235.849,347.215h-98.902c-5.76,0-10.429-4.67-10.429-10.429s4.67-10.429,10.429-10.429h98.902
			c5.76,0,10.429,4.67,10.429,10.429S241.609,347.215,235.849,347.215z M219.493,258.358c1.843-10.676,11.126-18.838,22.322-18.838
			c11.195,0,20.478,8.161,22.323,18.838H219.493z M300.037,364.493c-15.83,0-28.664-12.84-28.664-28.68
			c0-15.84,12.832-28.68,28.664-28.68c15.83,0,28.662,12.84,28.662,28.68S315.866,364.493,300.037,364.493z"/>
	</g>
</g>
<g>
	<g>
		<path d="M498.821,317.132c-4.197,8.053-11.875,13.474-20.657,14.848c-7.138,7.973-17.206,12.991-28.063,13.733l0.401,141.956
			C450.541,501.122,461.457,512,474.901,512c0.023,0,0.047,0,0.07,0c13.475-0.038,24.368-10.992,24.331-24.468L498.821,317.132z"/>
	</g>
</g>
<g>
	<g>
		<path d="M405.864,305.988c-4.701,0.519-9.34,0.315-14.598-1.084l-0.015,182.693c-0.001,13.475,10.923,24.4,24.398,24.401
			c0.001,0,0.001,0,0.002,0c13.474,0,24.399-10.923,24.4-24.398l0.011-142.438C420.344,341.666,406.596,324.943,405.864,305.988z"/>
	</g>
</g>
<g>
	<g>
		<circle cx="447.259" cy="44.901" r="44.901"/>
	</g>
</g>
<g>
	<g>
		<path d="M498.252,135.423c0-15.586-12.636-28.222-28.222-28.222c-10.439,0-41.143,0-51.681,0
			c-15.586,0-28.222,12.636-28.222,28.222c0,23.929,0,32.882,0,43.739l-30.554,5.402l-7.022-13.488
			c-2.698-5.183-9.148-7.298-14.431-4.55c-5.153,2.682-7.312,9.125-4.55,14.431l3.91,7.512l-1.907,0.337
			c-11.78,2.083-19.643,13.322-17.561,25.102c2.083,11.779,13.317,19.643,25.103,17.561l47.011-8.31v5.182
			c10.357-3.086,21.825-1.924,31.677,3.929l8.326-23.068l3.935-55.443l11.828,62.666c-2.888,12.154-10.448,43.974-13.027,54.825
			l-9.623-5.006c-0.087-7.774-4.34-15.248-11.72-19.087c-4.936-2.567-10.735-3.203-16.288-1.538c-1.774,0.532-2.003,2.96-0.36,3.814
			l9.399,4.89l0.618,14.057l-11.864,7.563l-9.178-4.774c-1.642-0.855-3.529,0.737-2.905,2.518
			c1.767,5.036,5.376,9.437,10.485,12.095c7.311,3.803,15.875,3.075,22.356-1.361l14.195,7.385l-1.794,7.554
			c-2.726,11.471,4.32,23.292,16.068,26.083c10.524,2.498,21.234-3.185,25.144-13.132l1.63,0.848
			c5.017,2.61,11.205,0.661,13.817-4.361c2.611-5.02,0.659-11.206-4.361-13.817l-5.987-3.115
			c1.889-7.952,14.746-62.063,16.612-69.917c0.704-2.961,0.775-6.035,0.211-9.025l-12.684-67.199l21.615,42.764
			C498.252,172.627,498.252,151.298,498.252,135.423z"/>
	</g>
</g>
</svg>